<?xml version="1.0" encoding="UTF-8"?>
<svg xmlns="http://www.w3.org/2000/svg" xmlns:xlink="http://www.w3.org/1999/xlink" viewBox="0 0 693.52 411.88">
  <defs>
    <linearGradient id="Degradado_sin_nombre_3" x1="145.02" y1="395.94" x2="145.02" y2="188.13" gradientUnits="userSpaceOnUse">
      <stop offset="0" stop-color="#914214"></stop>
      <stop offset="0.48" stop-color="#e45210"></stop>
      <stop offset="0.93" stop-color="#f1882a"></stop>
    </linearGradient>
    <linearGradient id="Degradado_sin_nombre_3-2" x1="126.56" y1="423.94" x2="126.56" y2="272.43" xlink:href="#Degradado_sin_nombre_3"></linearGradient>
    <linearGradient id="Degradado_sin_nombre_3-3" x1="145.73" y1="358.47" x2="90.6" y2="242.16" xlink:href="#Degradado_sin_nombre_3"></linearGradient>
    <linearGradient id="Degradado_sin_nombre_3-4" x1="200.31" y1="186.19" x2="200.31" y2="286.03" xlink:href="#Degradado_sin_nombre_3"></linearGradient>
    <linearGradient id="Degradado_sin_nombre_3-5" x1="162.41" y1="192.79" x2="162.41" y2="86.9" xlink:href="#Degradado_sin_nombre_3"></linearGradient>
    <linearGradient id="Degradado_sin_nombre_3-6" x1="165.29" y1="70.87" x2="165.29" y2="105.63" xlink:href="#Degradado_sin_nombre_3"></linearGradient>
    <linearGradient id="Degradado_sin_nombre_3-7" x1="191.87" y1="198.87" x2="191.87" y2="74.92" xlink:href="#Degradado_sin_nombre_3"></linearGradient>
    <linearGradient id="Degradado_sin_nombre_3-8" x1="154.04" y1="156.6" x2="154.04" y2="27.12" xlink:href="#Degradado_sin_nombre_3"></linearGradient>
  </defs>
  <g id="Capa_2" data-name="Capa 2">
    <g id="Capa_1-2" data-name="Capa 1">
      <path d="M374.65,288.8a47.39,47.39,0,0,1-19.38-18.57q-6.9-12-6.9-27.8V201.84q0-15.42,6.9-27.29a47.67,47.67,0,0,1,19.38-18.47q12.48-6.59,28.92-6.59t29,6.59a47.56,47.56,0,0,1,19.48,18.47q6.9,11.87,6.9,27.29v40.59q0,15.84-6.9,27.8a47.28,47.28,0,0,1-19.48,18.57q-12.58,6.6-29,6.6T374.65,288.8Zm44.64-28.51q6-6.28,6-16.84v-42q0-10.35-6-16.74t-15.72-6.4q-9.54,0-15.53,6.4t-6,16.74v42q0,10.55,6,16.84t15.53,6.29Q413.31,266.58,419.29,260.29Z" style="fill:#fff"></path>
      <path d="M556.58,156.79A40.19,40.19,0,0,1,573,172.72a47.34,47.34,0,0,1,5.78,23.64,45.05,45.05,0,0,1-6,23.34,39.87,39.87,0,0,1-16.94,15.63q-11,5.47-25.37,5.48H505.74a.9.9,0,0,0-1,1v48.91a2.42,2.42,0,0,1-2.44,2.43H473.48a2.42,2.42,0,0,1-2.44-2.43V153.55a2.42,2.42,0,0,1,2.44-2.44h58.65A51.15,51.15,0,0,1,556.58,156.79Zm-16.44,52.56a15.62,15.62,0,0,0,5.18-12.17,16.17,16.17,0,0,0-5.18-12.48q-5.17-4.77-13.49-4.77H505.74a.9.9,0,0,0-1,1V213a.9.9,0,0,0,1,1h20.91Q535,214,540.14,209.35Z" style="fill:#fff"></path>
      <path d="M657.4,291.13l-5.28-18.06c-.27-.54-.61-.81-1-.81H604.84q-.62,0-1,.81l-5.27,18.06a2.68,2.68,0,0,1-2.85,2h-31a2.26,2.26,0,0,1-1.83-.71,2.17,2.17,0,0,1-.2-2.12l43.42-137.19a2.56,2.56,0,0,1,2.64-2h38.36a2.56,2.56,0,0,1,2.64,2l43.63,137.19a2.3,2.3,0,0,1,.2,1c0,1.22-.75,1.82-2.23,1.82h-31A2.66,2.66,0,0,1,657.4,291.13Zm-44.65-44.85H643c.81,0,1.08-.4.81-1.21l-15.42-52.16c-.14-.53-.34-.77-.61-.7a.92.92,0,0,0-.61.7l-15.22,52.16C611.8,245.88,612.07,246.28,612.75,246.28Z" style="fill:#fff"></path>
      <path d="M312.15,156.08A46.73,46.73,0,0,1,331,174.65q6.69,12,6.7,27.6v42.41q0,17.86-9.64,30.55T301.8,292.56a1,1,0,0,0-.82,1V309.4a2.42,2.42,0,0,1-2.43,2.43H269.73a2.42,2.42,0,0,1-2.43-2.43V293.57a1,1,0,0,0-.81-1q-16.86-4.47-26.49-17.15t-9.64-30.75V202.25q0-15.63,6.7-27.6a46.66,46.66,0,0,1,18.87-18.57q12.18-6.59,28-6.59Q300,149.49,312.15,156.08ZM304,200.42q0-9.93-5.48-16t-14.61-6.09q-8.94,0-14.41,6.09t-5.48,16v43.43q0,9.94,5.48,16T283.94,266q9.13,0,14.61-6.09t5.48-16Z" style="fill:#fff"></path>
      <path d="M286.77,94.75a26.84,26.84,0,0,0-11.67-9.58L229.56,65.36C220.36,36,205,10.49,161.23,1.63c-16.49-3.34-29.82-1.15-40.13,3-10.54-.4-27,1.26-45.54,11.54S10.32,68.78,19.08,98.87A40.55,40.55,0,0,0,22,106.51c4.35,8.22,17.62,31.33,34.86,43.17,0,0,25.17,16,45.22-13.78,6.38-9.5,11.25-20.12,1.91-50.81A94.41,94.41,0,0,1,100.1,56a84.36,84.36,0,0,1,1.31-13.78c15.77-31.23,48.72-27.07,53.15-26.51,54.26,6.82,63,61,63,61l35.11,16.06c-13.58,26.81,13.82,37.84,13.82,37.84-11.09,37.59-52.53,36.45-52.53,36.45H146.49c-5-49,28.56-55.45,42.76-74.35,9.62-12.79,9.66-32.74-8.4-48.95s-41.22-13.19-48.63-9.24c-5.85,3.13-22.36,11.49-11.28,51.71,7.52,27.29,1.9,44.38-2.48,52.54a30.81,30.81,0,0,0-3.3,20.6c4.74,23.64,27.69,23.33,27.69,23.33h52.66c-4.87,10.38-12.35,30.3,1.28,54.86a43.52,43.52,0,0,1,3.49,8.34c11.45,37.44-5,75-5,75-41.21-99.32-124.43-92.33-124.43-92.33,25.75-30.6,12.61-66,12.61-66-8.31,2.88-17.64.73-17.64.73,8.51,37.3-.73,46.88-4.81,52.17-6.41,8.3-40.86,40.1-40.86,40.1,140-37.37,167.23,109.27,167.23,109.27l-10.48,11.82c-49.71-159-165.56-99.58-165.56-99.58-25.49,45.59,0,90.86,0,90.86C73.61,311.19,175,411.88,175,411.88c98.23-32.92,75.19-114.55,75.19-114.55-9.67-33.9-29.1-44.36-40.23-68.69-8.86-19.37-1.46-38.82,1.93-45.95h2.48c72.65-4.61,71.14-67.48,71.14-67.48C292.37,107.41,290.29,100,286.77,94.75Z" style="fill:url(#Degradado_sin_nombre_3)"></path>
      <path d="M216.26,239.5c3.23,7.84,3.24,27.63,3.24,27.63C278,357.6,178.11,392,178.11,392,77,300.2,16.66,344.75,16.66,344.75c-7.81-44,14.07-74.59,14.07-74.59L11.6,277c-25.49,45.6,0,90.86,0,90.86,62.28-56.74,163.7,43.95,163.7,43.95,98.24-32.92,75.19-114.56,75.19-114.56-8.1-28.39-23.05-40.35-34.23-57.78" style="fill:url(#Degradado_sin_nombre_3-2)"></path>
      <path d="M26.11,250.38c116-39.45,162.24,85,162.24,85l8.86-12.07C148.86,208.08,47.74,229.75,47.74,229.75Z" style="fill:url(#Degradado_sin_nombre_3-3)"></path>
      <path d="M217,240.63a107.14,107.14,0,0,1-6.95-12c-11.13-24.33,3.41-48.8,3.41-48.8l-16.64.24c-4.57,9.38-14.85,30.67,0,57.48a42.68,42.68,0,0,1,3.5,8.34c11.45,37.43-5,75-5,75S193,329,180.76,342c0,0,4.5,13,6.63,22.76C233.54,316.65,217,240.63,217,240.63Z" style="fill:url(#Degradado_sin_nombre_3-4)"></path>
      <path d="M168.11,35.52s13.27,3.55,13.22,31.08c0,12.8-2.47,16.49-23.46,32.22-13,9.72-20.75,23.9-24.52,33.59-14.43,37,13.13,34.64,13.13,34.64-5-49,28.55-55.45,42.76-74.35,9.62-12.79,9.66-32.74-8.4-48.95a47.77,47.77,0,0,0-13-8.37" style="fill:url(#Degradado_sin_nombre_3-5)"></path>
      <circle cx="165.29" cy="72.92" r="15.47" style="fill:url(#Degradado_sin_nombre_3-6)"></circle>
      <path d="M146.49,167.05h67.45s41.44,1.14,52.53-36.45c0,0-27.4-11-13.82-37.84L217.54,76.7s-8.72-54.22-63-61C149.09,15,100,8.76,93.71,70.72V26.24s21.34-34,67.52-24.61C205,10.49,220.36,36,229.56,65.36L275.1,85.17a26.84,26.84,0,0,1,11.67,9.58c3.52,5.26,5.6,12.66-1.23,20.46,0,0,1.51,62.87-71.14,67.48H142.85s-22.95.31-27.69-23.33a30.81,30.81,0,0,1,3.3-20.6c4.38-8.16,10-25.25,2.48-52.54C115.5,66.5,116.71,54.44,120,46.9h0s20.58,8.24,19.33,69.39c-.1,4.84-1.47,12.31-3.5,16.69-5,10.67-12.58,33.17,10.63,34.07" style="fill:url(#Degradado_sin_nombre_3-7)"></path>
      <path d="M285.56,115.24c6.83-7.81,4.75-15.2,1.23-20.47a26.82,26.82,0,0,0-11.67-9.57L229.58,65.39C220.38,36,205,10.52,161.25,1.65c-13.88-2.81-25.51-1.7-35,1.21L126,3C79.37,18.61,82.6,65.56,88.45,86.67s4.14,29.19,4.14,29.19C89.81,139.72,72.53,138.28,66.34,137a14.22,14.22,0,0,1-4.5-1.76c-8.9-5.48-17.54-20.87-22.36-27.95-11.6-17-3.32-31.77.66-36,2.21-2.35,12.37-13.4,20.94-22.73a56.09,56.09,0,0,0,14.5-32.31h0C57,26.54,10.34,68.8,19.1,98.9A40.81,40.81,0,0,0,22,106.54c4.35,8.21,17.62,31.33,34.86,43.17,0,0,25.17,16,45.22-13.79,6.38-9.49,11.24-20.11,1.92-50.78a91.7,91.7,0,0,1-3.91-28.37v-.69a40,40,0,0,1,18.51-33.25c15.48-9.73,32.82-7.54,36-7.15,54.26,6.82,63,61,63,61l35.11,16.06S285.8,106.43,285.56,115.24Z" style="fill:url(#Degradado_sin_nombre_3-8)"></path>
    </g>
  </g>
</svg>
